inDegrees=no
num_controls=7
num_derivatives=13
num_iterations=137
num_multipliers=7
num_parameters=0
num_slacks=7
num_states=26
objective=0.497129
objective_accelerations=0.032453
objective_balance=0.003256
objective_effort=0.035099
objective_height=0.420822
objective_ligament=0.005500
solver_duration=1591.731927
status=Solve_Succeeded
success=true
DataType=double
version=3
OpenSimVersion=4.5
endheader
time	/jointset/ground_pelvis/pelvis_tilt/value	/jointset/ground_pelvis/pelvis_tx/value	/jointset/ground_pelvis/pelvis_ty/value	/jointset/hip_r/hip_flexion_r/value	/jointset/hip_r/hip_adduction_r/value	/jointset/hip_r/hip_rotation_r/value	/jointset/back/lumbar_extension/value	/jointset/patellofemoral_r/patellar_flexion_r/value	/jointset/knee_r/knee_flexion_r/value	/jointset/knee_r/knee_adduction_r/value	/jointset/knee_r/knee_rotation_r/value	/jointset/ankle_r/ankle_angle_r/value	/jointset/subtalar_r/subtalar_angle_r/value	/jointset/ground_pelvis/pelvis_tilt/speed	/jointset/ground_pelvis/pelvis_tx/speed	/jointset/ground_pelvis/pelvis_ty/speed	/jointset/hip_r/hip_flexion_r/speed	/jointset/hip_r/hip_adduction_r/speed	/jointset/hip_r/hip_rotation_r/speed	/jointset/back/lumbar_extension/speed	/jointset/patellofemoral_r/patellar_flexion_r/speed	/jointset/knee_r/knee_flexion_r/speed	/jointset/knee_r/knee_adduction_r/speed	/jointset/knee_r/knee_rotation_r/speed	/jointset/ankle_r/ankle_angle_r/speed	/jointset/subtalar_r/subtalar_angle_r/speed	/forceset/tau_hip_flexion_r	/forceset/tau_hip_adduction_r	/forceset/tau_hip_rotation_r	/forceset/tau_knee_flexion_r	/forceset/tau_ankle_angle_r	/forceset/tau_subtalar_angle_r	/forceset/tau_lumbar_extension	lambda_cid13_p0	lambda_cid14_p0	lambda_cid14_p1	lambda_cid14_p2	lambda_cid14_p3	lambda_cid14_p4	lambda_cid14_p5	/jointset/ground_pelvis/pelvis_tilt/accel	/jointset/ground_pelvis/pelvis_tx/accel	/jointset/ground_pelvis/pelvis_ty/accel	/jointset/hip_r/hip_flexion_r/accel	/jointset/hip_r/hip_adduction_r/accel	/jointset/hip_r/hip_rotation_r/accel	/jointset/back/lumbar_extension/accel	/jointset/patellofemoral_r/patellar_flexion_r/accel	/jointset/knee_r/knee_flexion_r/accel	/jointset/knee_r/knee_adduction_r/accel	/jointset/knee_r/knee_rotation_r/accel	/jointset/ankle_r/ankle_angle_r/accel	/jointset/subtalar_r/subtalar_angle_r/accel	gamma_cid13_p0	gamma_cid14_p0	gamma_cid14_p1	gamma_cid14_p2	gamma_cid14_p3	gamma_cid14_p4	gamma_cid14_p5
1.5	-0.1090508822452863	0.06195982705349936	0.8711199733510858	0.6658906640943435	-0.2274233703973423	-0.143494979732175	-0.2793971933988859	0.6442075817202184	0.6442075817201907	0.0418392150743614	0.174000196893163	0.257479442689977	0.05862675280221759	0.2355872145695544	0.116113367188512	0.3229438778735583	-1.441328251985244	0.01843587958069344	-0.2819684191311228	0.6976602350171646	-1.736222889566609	-1.736222889566626	0.2758136933798572	0.001957124676592909	-0.6199804681290727	-0.1534033678962835	-0.06597959338965148	-0.01609766172918466	0.006731720745601336	-0.321342637304632	0.05414391290412483	-0.01187674203017486	0.1229562977299538	-34.38055363233807	-24.40102912230363	-5.412523155977376	-3.266637751233686	3.446820670112885	-663.3053334672767	57.21745235399981	0.04479394525683861	0.2684308260844466	-0.4347060836920712	-0.7451996387688475	-0.01796356547792956	-0.5531427822443615	1.232603545932989	-1.049067936987906	-1.049067936987868	0.3951882214323614	-0.005786966915515737	-0.47086584293089	-0.03369826484054576	1.149149241125422e-07	1.49313238835072e-07	-5.701457100680153e-07	1.212737075859245e-06	-1.699708907955235e-08	1.711838815189055e-07	-8.802488589925659e-07
1.51	-0.1066932038513207	0.06313422701319826	0.8743269558073616	0.6514420673297409	-0.2272406323489158	-0.1463414971083785	-0.2723598179770576	0.6267953068605102	0.6267953068604409	0.0446187995191718	0.1740197363337083	0.251256720701141	0.05709024806036747	0.2359141798939874	0.1187488673888587	0.3183851562989079	-1.44819028785014	0.01811393025673217	-0.2873232952359323	0.7097139017174129	-1.745984152845432	-1.745984152845437	0.2800817489622642	0.00194627538341215	-0.6244749364177105	-0.1538681114016081	-0.0604777845245409	-0.01804272267430021	0.006084483929461829	-0.3182870631005788	0.058258786202533	-0.01260427467315473	0.1178442728738755	-35.27013202621276	-22.95546984031514	-5.363394438508429	-3.402388382163594	2.928824977489915	-660.2566354814916	57.3884156920802	0.02152007256049069	0.2584462828293723	-0.4765373556801277	-0.6265654564055039	-0.03884201351187573	-0.524691858461059	1.176606087413569	-0.9024919905835445	-0.9024919905817598	0.4393625890263187	0.000808860220558631	-0.425372800995381	-0.04841475407696161	1.245303166742888e-07	1.508416094731946e-07	-6.956336265113692e-07	1.234355601236029e-06	-4.887358143810969e-09	1.783260577314025e-07	-9.703656883570488e-07
1.52	-0.1043332813548059	0.0643344493080646	0.877486334615625	0.6369308782272779	-0.2270610200732636	-0.1492411696124008	-0.2652049343171579	0.6092928520745604	0.6092928520744524	0.04744041419227859	0.1740390758354751	0.2449917269335856	0.05554998541132421	0.2360360350793773	0.1212778342219977	0.3134231482711112	-1.453846719557258	0.01781072502650859	-0.2925994446952165	0.721161882631372	-1.754258874814416	-1.75425887481441	0.2842197390399316	0.001917136919827317	-0.6284348238729552	-0.1541549493348753	-0.054975975659431	-0.01998778361942175	0.005437247113365884	-0.3152314888965271	0.0623736595009389	-0.01333180731614374	0.1127322480177981	-36.12651118951422	-21.51890929628652	-5.31313939066676	-3.541405689397973	2.407339965526971	-657.3557708178738	57.63251514993512	0.003771917448236174	0.2471241526428922	-0.5153633743213059	-0.5040788072131501	-0.01421474673039968	-0.5373974531393321	1.111466388675196	-0.7517596750201495	-0.7517596750201553	0.3691751204844301	-0.009444800996338796	-0.3639496762523352	0.001882849570911898	1.341153018345696e-07	1.518655605612064e-07	-8.18221339108605e-07	1.252310233046509e-06	7.244836372727495e-09	1.840119178114874e-07	-1.05434813129421e-06
1.53	-0.1019731707089553	0.06555939431927427	0.8805941243413722	0.6223692043806821	-0.2268844192887944	-0.1521933116194861	-0.2579386980809242	0.5917151805958666	0.5917151805957489	0.05030281750880564	0.1740581997983383	0.2386898250884105	0.05400765150573267	0.2359530369944037	0.1236896212431111	0.3080725028718915	-1.458280687400278	0.01750995044603706	-0.297803219365548	0.7319715289524055	-1.761015698517775	-1.761015698517778	0.2882455738057342	0.00189781833231543	-0.6318524034076792	-0.1542853389746674	-0.04939576522133243	-0.02207731022074455	0.00480892405578574	-0.3122464961102138	0.06660010685347831	-0.01417990696780097	0.1075617690311913	-36.94516952667755	-20.05840305507112	-5.318135229099571	-3.663525028913928	1.901710558585791	-654.5262701879589	57.81832790730439	-0.01927922301012558	0.2349791420438487	-0.5542211504864838	-0.3819333314601212	-0.0378132007336149	-0.5077838440497834	1.048638404386325	-0.5987151133548819	-0.5987151133562045	0.4169212422751113	0.0005694686732001762	-0.3166700481728226	-0.01653326819056971	1.436679791307929e-07	1.523535658772255e-07	-9.377275851193403e-07	1.266371977942789e-06	1.940089844386286e-08	1.881504420008844e-07	-1.131812788652341e-06
1.54	-0.09961487875426241	0.0668078118337348	0.8836465464075743	0.607769415343933	-0.2267107871275381	-0.1551966746472875	-0.2505677804513662	0.5740777266010636	0.5740777266009397	0.05320500589051601	0.1740768795465941	0.2323565458566701	0.05246480702425582	0.2356722968478306	0.125972334872166	0.3023496163621011	-1.46146975758784	0.0172170003844458	-0.3028436488386709	0.7420981612961935	-1.766215378035577	-1.766215378035589	0.2921767520774161	0.001828293996875325	-0.6347103011860187	-0.1542570645119123	-0.04381555478323793	-0.02416683682207437	0.004180600998262071	-0.3092615033239032	0.07082655420601473	-0.01502800661946913	0.1023912900445829	-37.72158602411078	-18.60746424305392	-5.321698822444531	-3.789423018968473	1.392587584134076	-651.8564372388316	58.08178464903652	-0.03577649487166427	0.2213094742312064	-0.5898115964354512	-0.2550992761212873	-0.01264984295435335	-0.5047284136976311	0.9748635932261517	-0.440330837908778	-0.4403308379087873	0.3502438216602642	-0.0194859505819907	-0.2520133249754243	0.03361567008034842	1.536995529678381e-07	1.521785957293879e-07	-1.06581854863741e-06	1.27518768730852e-06	3.260087789429871e-08	1.921623939237793e-07	-1.209090788183567e-06
1.55	-0.09726039807312988	0.06807837954614956	0.8866399309470762	0.5931440330727087	-0.2265400892052828	-0.1582499216312555	-0.2430991230147432	0.5563961791491975	0.5563961791491069	0.05614593050271789	0.1740949170884102	0.2259975233192924	0.05092299729336777	0.2351903224705731	0.1281161240641432	0.2962704971009876	-1.463389186482831	0.01692376133399332	-0.3077781430727493	0.7515061414730454	-1.769819730276947	-1.769819730276951	0.2959863023870261	0.001772684974860889	-0.6369947207142507	-0.1540773618993064	-0.03811687042551353	-0.02644291373720179	0.003557607660690259	-0.3064333346753734	0.07528738849566043	-0.0160102422986105	0.09713900850892992	-38.45125976666091	-17.0943280760025	-5.379531674760991	-3.898781792082785	0.8683242893994587	-649.2762466506852	58.2983204886622	-0.05942068061003659	0.2071621107018915	-0.625441621267619	-0.1277205745905425	-0.03739673282041118	-0.4834286072542109	0.9046875466233022	-0.2793641405846317	-0.2793641405835527	0.3929298160934525	0.0006443771137472468	-0.2017064904062982	0.0142250405570608	1.642828989062651e-07	1.51239762547107e-07	-1.203800599718277e-06	1.277959051389053e-06	4.700363171653724e-08	1.960285125830958e-07	-1.286153725435968e-06
1.56	-0.09491173969006116	0.06936963484428835	0.889570828387903	0.5785059853368538	-0.2263722708328801	-0.1613516372933615	-0.2355402013130098	0.5386868128302471	0.5386868128301942	0.05912427445410789	0.1741122470910393	0.2196186465419005	0.04938380008534695	0.2345078372350244	0.1301098520169666	0.2898521966271376	-1.464002850513924	0.0166410904143542	-0.3125373844664807	0.7601510143182389	-1.771779151451661	-1.771779151451658	0.2996606199159211	0.001686786157842446	-0.6386811491888511	-0.1537345599384467	-0.03241818606778977	-0.02871899065233223	0.002934614323168272	-0.303605166026846	0.07974822278530454	-0.01699247797775695	0.09188672697327734	-39.12980311871907	-15.59118355410503	-5.435641254191196	-4.012382835993747	0.3402908609302321	-646.86538816719	58.59615879999666	-0.07587866652988526	0.1912972264004682	-0.6576478389827508	0.006053696658064045	-0.01053621679168927	-0.4696778456282568	0.8222421268945024	-0.1113446245778749	-0.1113446245778726	0.3231972655172785	-0.02554390958279884	-0.1324151142491052	0.06623553973112077	1.752690465914016e-07	1.5123343540033e-07	-1.344872910110079e-06	1.282644935725524e-06	6.042563644868463e-08	2.049710957117762e-07	-1.363152329788937e-06
